<svg width="793" height="585" viewBox="0 0 793 585" fill="none" xmlns="http://www.w3.org/2000/svg">
<path d="M83.854 512.223H63.2655C62.991 510.109 62.4283 508.201 61.5773 506.499C60.7263 504.797 59.6008 503.342 58.2008 502.135C56.8007 500.927 55.1399 500.007 53.2183 499.376C51.3242 498.717 49.2242 498.387 46.9183 498.387C42.828 498.387 39.3005 499.389 36.3358 501.393C33.3985 503.397 31.1338 506.293 29.5416 510.082C27.9769 513.87 27.1945 518.454 27.1945 523.835C27.1945 529.435 27.9906 534.129 29.5828 537.917C31.2024 541.678 33.4671 544.519 36.377 546.441C39.3143 548.335 42.7868 549.282 46.7947 549.282C49.0457 549.282 51.0909 548.994 52.9301 548.417C54.7968 547.841 56.4301 547.004 57.8302 545.906C59.2576 544.78 60.4243 543.421 61.3302 541.829C62.2635 540.21 62.9086 538.384 63.2655 536.353L83.854 536.476C83.4971 540.21 82.4128 543.888 80.601 547.512C78.8167 551.135 76.3598 554.443 73.2303 557.435C70.1009 560.4 66.2852 562.761 61.7831 564.518C57.3086 566.275 52.1752 567.153 46.383 567.153C38.7515 567.153 31.9161 565.478 25.8768 562.129C19.865 558.753 15.1159 553.839 11.6296 547.388C8.14331 540.937 6.40015 533.086 6.40015 523.835C6.40015 514.556 8.17076 506.691 11.712 500.24C15.2532 493.789 20.0434 488.889 26.0827 485.54C32.122 482.191 38.8888 480.517 46.383 480.517C51.4889 480.517 56.2105 481.23 60.5478 482.658C64.8851 484.058 68.7009 486.117 71.995 488.834C75.2892 491.525 77.9657 494.833 80.0245 498.758C82.0834 502.684 83.3599 507.172 83.854 512.223ZM113.347 567.071C109.312 567.071 105.729 566.398 102.6 565.053C99.4978 563.68 97.0409 561.622 95.2291 558.876C93.4448 556.104 92.5526 552.631 92.5526 548.459C92.5526 544.945 93.1703 541.98 94.4056 539.564C95.6409 537.149 97.3429 535.186 99.5115 533.676C101.68 532.166 104.178 531.027 107.006 530.258C109.833 529.462 112.853 528.927 116.065 528.653C119.661 528.323 122.557 527.98 124.753 527.623C126.949 527.239 128.541 526.703 129.53 526.017C130.545 525.303 131.053 524.301 131.053 523.011V522.805C131.053 520.692 130.326 519.058 128.871 517.905C127.416 516.752 125.453 516.176 122.982 516.176C120.32 516.176 118.178 516.752 116.559 517.905C114.939 519.058 113.91 520.65 113.471 522.682L94.8997 522.023C95.4487 518.18 96.8625 514.748 99.1409 511.729C101.447 508.682 104.604 506.293 108.612 504.564C112.647 502.807 117.492 501.929 123.147 501.929C127.182 501.929 130.902 502.409 134.306 503.37C137.71 504.303 140.675 505.676 143.2 507.488C145.726 509.272 147.675 511.468 149.047 514.076C150.447 516.684 151.147 519.662 151.147 523.011V566H132.206V557.188H131.712C130.586 559.329 129.145 561.141 127.388 562.623C125.659 564.106 123.614 565.218 121.253 565.959C118.92 566.7 116.284 567.071 113.347 567.071ZM119.565 553.894C121.733 553.894 123.682 553.455 125.412 552.576C127.169 551.698 128.569 550.49 129.612 548.953C130.655 547.388 131.177 545.576 131.177 543.517V537.506C130.6 537.808 129.9 538.082 129.077 538.329C128.28 538.576 127.402 538.809 126.441 539.029C125.48 539.249 124.492 539.441 123.477 539.606C122.461 539.77 121.486 539.921 120.553 540.059C118.659 540.36 117.039 540.827 115.694 541.459C114.376 542.09 113.361 542.913 112.647 543.929C111.961 544.917 111.618 546.098 111.618 547.47C111.618 549.557 112.359 551.149 113.841 552.247C115.351 553.345 117.259 553.894 119.565 553.894ZM163.459 566V502.752H183.018V514.282H183.677C184.83 510.109 186.711 507.007 189.318 504.976C191.926 502.917 194.96 501.887 198.419 501.887C199.352 501.887 200.313 501.956 201.301 502.093C202.289 502.203 203.209 502.382 204.06 502.629V520.129C203.099 519.799 201.836 519.539 200.272 519.347C198.734 519.154 197.362 519.058 196.154 519.058C193.766 519.058 191.611 519.594 189.689 520.664C187.795 521.707 186.299 523.176 185.201 525.07C184.13 526.937 183.595 529.133 183.595 531.658V566H163.459ZM238.504 567.194C231.861 567.194 226.151 565.835 221.375 563.118C216.626 560.372 212.961 556.557 210.38 551.67C207.827 546.757 206.551 541.06 206.551 534.582C206.551 528.076 207.827 522.38 210.38 517.494C212.961 512.58 216.626 508.764 221.375 506.046C226.151 503.301 231.861 501.929 238.504 501.929C245.148 501.929 250.844 503.301 255.593 506.046C260.369 508.764 264.034 512.58 266.587 517.494C269.167 522.38 270.458 528.076 270.458 534.582C270.458 541.06 269.167 546.757 266.587 551.67C264.034 556.557 260.369 560.372 255.593 563.118C250.844 565.835 245.148 567.194 238.504 567.194ZM238.628 552C241.044 552 243.089 551.259 244.763 549.776C246.438 548.294 247.714 546.235 248.593 543.6C249.499 540.964 249.951 537.917 249.951 534.458C249.951 530.945 249.499 527.87 248.593 525.235C247.714 522.599 246.438 520.541 244.763 519.058C243.089 517.576 241.044 516.835 238.628 516.835C236.13 516.835 234.016 517.576 232.287 519.058C230.585 520.541 229.281 522.599 228.375 525.235C227.496 527.87 227.057 530.945 227.057 534.458C227.057 537.917 227.496 540.964 228.375 543.6C229.281 546.235 230.585 548.294 232.287 549.776C234.016 551.259 236.13 552 238.628 552ZM321.579 538.7V502.752H341.673V566H322.485V554.223H321.826C320.426 558.094 318.038 561.169 314.661 563.447C311.312 565.698 307.263 566.824 302.514 566.824C298.204 566.824 294.416 565.835 291.149 563.859C287.882 561.882 285.343 559.123 283.531 555.582C281.72 552.014 280.8 547.841 280.772 543.064V502.752H300.908V539.111C300.935 542.543 301.841 545.247 303.626 547.223C305.41 549.2 307.839 550.188 310.914 550.188C312.918 550.188 314.716 549.749 316.308 548.87C317.928 547.964 319.204 546.661 320.138 544.959C321.098 543.229 321.579 541.143 321.579 538.7ZM409.708 522.064L391.219 522.558C391.027 521.241 390.506 520.074 389.655 519.058C388.804 518.015 387.692 517.205 386.319 516.629C384.974 516.025 383.409 515.723 381.625 515.723C379.292 515.723 377.302 516.19 375.654 517.123C374.035 518.056 373.239 519.319 373.266 520.911C373.239 522.147 373.733 523.217 374.749 524.123C375.792 525.029 377.645 525.756 380.307 526.305L392.496 528.611C398.81 529.819 403.504 531.823 406.578 534.623C409.68 537.423 411.245 541.129 411.272 545.741C411.245 550.078 409.955 553.853 407.402 557.065C404.876 560.276 401.417 562.774 397.025 564.559C392.633 566.316 387.609 567.194 381.955 567.194C372.923 567.194 365.799 565.341 360.584 561.635C355.395 557.902 352.431 552.906 351.689 546.647L371.578 546.153C372.017 548.459 373.156 550.216 374.996 551.423C376.835 552.631 379.182 553.235 382.037 553.235C384.617 553.235 386.717 552.755 388.337 551.794C389.957 550.833 390.78 549.557 390.808 547.964C390.78 546.537 390.149 545.398 388.913 544.547C387.678 543.668 385.743 542.982 383.107 542.488L372.072 540.388C365.731 539.235 361.009 537.108 357.907 534.006C354.805 530.876 353.268 526.896 353.295 522.064C353.268 517.837 354.393 514.227 356.672 511.235C358.95 508.215 362.19 505.909 366.39 504.317C370.59 502.725 375.545 501.929 381.255 501.929C389.819 501.929 396.572 503.727 401.514 507.323C406.455 510.892 409.186 515.805 409.708 522.064ZM450.751 567.194C444.135 567.194 438.425 565.89 433.621 563.282C428.845 560.647 425.166 556.9 422.586 552.041C420.033 547.155 418.756 541.349 418.756 534.623C418.756 528.09 420.047 522.38 422.627 517.494C425.207 512.58 428.845 508.764 433.539 506.046C438.233 503.301 443.765 501.929 450.133 501.929C454.635 501.929 458.753 502.629 462.486 504.029C466.22 505.429 469.445 507.501 472.163 510.246C474.881 512.992 476.994 516.382 478.504 520.417C480.014 524.425 480.769 529.023 480.769 534.211V539.235H425.798V527.541H462.033C462.006 525.4 461.498 523.492 460.51 521.817C459.522 520.143 458.163 518.839 456.433 517.905C454.731 516.945 452.769 516.464 450.545 516.464C448.294 516.464 446.276 516.972 444.492 517.988C442.708 518.976 441.294 520.335 440.251 522.064C439.208 523.766 438.659 525.701 438.604 527.87V539.77C438.604 542.351 439.112 544.615 440.127 546.564C441.143 548.486 442.584 549.982 444.451 551.053C446.317 552.123 448.541 552.659 451.121 552.659C452.906 552.659 454.525 552.412 455.98 551.917C457.435 551.423 458.684 550.696 459.727 549.735C460.771 548.774 461.553 547.594 462.075 546.194L480.563 546.729C479.794 550.874 478.106 554.484 475.498 557.559C472.918 560.606 469.528 562.98 465.328 564.682C461.127 566.357 456.269 567.194 450.751 567.194ZM511.188 481.67V566H491.053V481.67H511.188ZM524.005 566V481.67H544.387V549.447H579.47V566H524.005ZM607.851 567.071C603.816 567.071 600.233 566.398 597.104 565.053C594.002 563.68 591.545 561.622 589.733 558.876C587.949 556.104 587.057 552.631 587.057 548.459C587.057 544.945 587.675 541.98 588.91 539.564C590.145 537.149 591.847 535.186 594.016 533.676C596.184 532.166 598.682 531.027 601.51 530.258C604.337 529.462 607.357 528.927 610.569 528.653C614.165 528.323 617.061 527.98 619.257 527.623C621.453 527.239 623.046 526.703 624.034 526.017C625.049 525.303 625.557 524.301 625.557 523.011V522.805C625.557 520.692 624.83 519.058 623.375 517.905C621.92 516.752 619.957 516.176 617.487 516.176C614.824 516.176 612.683 516.752 611.063 517.905C609.443 519.058 608.414 520.65 607.975 522.682L589.404 522.023C589.953 518.18 591.367 514.748 593.645 511.729C595.951 508.682 599.108 506.293 603.116 504.564C607.151 502.807 611.996 501.929 617.651 501.929C621.687 501.929 625.406 502.409 628.81 503.37C632.214 504.303 635.179 505.676 637.704 507.488C640.23 509.272 642.179 511.468 643.552 514.076C644.952 516.684 645.652 519.662 645.652 523.011V566H626.71V557.188H626.216C625.091 559.329 623.649 561.141 621.893 562.623C620.163 564.106 618.118 565.218 615.757 565.959C613.424 566.7 610.788 567.071 607.851 567.071ZM614.069 553.894C616.238 553.894 618.187 553.455 619.916 552.576C621.673 551.698 623.073 550.49 624.116 548.953C625.159 547.388 625.681 545.576 625.681 543.517V537.506C625.104 537.808 624.404 538.082 623.581 538.329C622.785 538.576 621.906 538.809 620.945 539.029C619.985 539.249 618.996 539.441 617.981 539.606C616.965 539.77 615.991 539.921 615.057 540.059C613.163 540.36 611.543 540.827 610.198 541.459C608.881 542.09 607.865 542.913 607.151 543.929C606.465 544.917 606.122 546.098 606.122 547.47C606.122 549.557 606.863 551.149 608.345 552.247C609.855 553.345 611.763 553.894 614.069 553.894ZM657.964 566V481.67H678.099V513.582H678.511C679.334 511.66 680.501 509.807 682.011 508.023C683.548 506.239 685.497 504.784 687.858 503.658C690.246 502.505 693.101 501.929 696.423 501.929C700.815 501.929 704.919 503.082 708.735 505.388C712.578 507.693 715.68 511.248 718.041 516.052C720.402 520.856 721.582 526.978 721.582 534.417C721.582 541.582 720.443 547.58 718.164 552.412C715.913 557.243 712.866 560.867 709.023 563.282C705.207 565.698 700.966 566.906 696.299 566.906C693.115 566.906 690.356 566.384 688.023 565.341C685.689 564.298 683.727 562.925 682.134 561.223C680.57 559.521 679.362 557.696 678.511 555.747H677.893V566H657.964ZM677.687 534.376C677.687 537.78 678.14 540.745 679.046 543.27C679.98 545.796 681.311 547.759 683.04 549.159C684.797 550.531 686.897 551.217 689.34 551.217C691.811 551.217 693.911 550.531 695.641 549.159C697.37 547.759 698.674 545.796 699.552 543.27C700.458 540.745 700.911 537.78 700.911 534.376C700.911 530.972 700.458 528.021 699.552 525.523C698.674 523.025 697.37 521.09 695.641 519.717C693.939 518.345 691.839 517.658 689.34 517.658C686.87 517.658 684.77 518.331 683.04 519.676C681.311 521.021 679.98 522.943 679.046 525.441C678.14 527.939 677.687 530.917 677.687 534.376ZM787.352 522.064L768.863 522.558C768.671 521.241 768.15 520.074 767.299 519.058C766.448 518.015 765.336 517.205 763.963 516.629C762.618 516.025 761.053 515.723 759.269 515.723C756.936 515.723 754.946 516.19 753.298 517.123C751.679 518.056 750.883 519.319 750.91 520.911C750.883 522.147 751.377 523.217 752.393 524.123C753.436 525.029 755.289 525.756 757.951 526.305L770.14 528.611C776.454 529.819 781.148 531.823 784.222 534.623C787.324 537.423 788.889 541.129 788.917 545.741C788.889 550.078 787.599 553.853 785.046 557.065C782.52 560.276 779.062 562.774 774.669 564.559C770.277 566.316 765.254 567.194 759.599 567.194C750.567 567.194 743.443 565.341 738.228 561.635C733.039 557.902 730.075 552.906 729.333 546.647L749.222 546.153C749.661 548.459 750.8 550.216 752.64 551.423C754.479 552.631 756.826 553.235 759.681 553.235C762.261 553.235 764.361 552.755 765.981 551.794C767.601 550.833 768.424 549.557 768.452 547.964C768.424 546.537 767.793 545.398 766.557 544.547C765.322 543.668 763.387 542.982 760.752 542.488L749.716 540.388C743.375 539.235 738.653 537.108 735.551 534.006C732.449 530.876 730.912 526.896 730.939 522.064C730.912 517.837 732.037 514.227 734.316 511.235C736.594 508.215 739.834 505.909 744.034 504.317C748.234 502.725 753.189 501.929 758.899 501.929C767.463 501.929 774.216 503.727 779.158 507.323C784.099 510.892 786.83 515.805 787.352 522.064Z" fill="black"/>
<g clip-path="url(#clip0_121_208)">
<path d="M344.495 154.679C338.147 154.679 329.221 156.176 328.215 147.815C327.492 141.784 327.464 132.872 335.129 131.983C340.032 131.404 353.818 131.389 358.649 132.081C364.104 132.858 367.604 137.674 368.1 142.914C369.956 162.672 366.938 185.708 367.703 205.777L272.546 367.757C261.721 386.922 271.894 405 293.671 406.694H500.196C515.583 406.045 527.301 395.424 525.756 379.535C525.034 372.107 518.289 362.559 514.521 355.893C485.772 304.979 453.283 255.985 425.98 204.322C426.929 184.818 424.053 162.941 425.753 143.719C426.235 138.324 429.423 132.943 435.189 132.053C439.78 131.347 453.935 131.446 458.724 131.983C466.559 132.858 467.381 141.219 466.375 147.744C465.071 156.204 456.641 154.778 450.166 154.679V201.271C478.263 252.016 512.041 301.151 539.415 352.136C559.747 389.972 543.708 423.303 501.769 430.958L292.042 431.001C255.231 428.218 232.788 389.083 252.511 356.698L344.495 200.466V154.693V154.679Z" fill="black"/>
<path d="M408.515 285.151C399.195 282.591 389.888 281.425 380.51 284.377C349.954 294.003 338.376 335.167 362.601 357.421C388.167 380.923 425.952 366.713 433.983 334.184C435.914 326.362 431.419 313.574 441.858 311.561C453.241 309.359 455.565 319.898 455.133 328.553C451.698 397.951 352.234 412.754 331.225 345.144C315.514 294.569 369.713 244.108 418.627 267.636C422.37 258.659 431.465 247.014 435.635 262.859C437.917 271.516 438.588 281.264 441.277 289.927C441.517 292.316 440.339 294.979 438.213 296.083L406.584 304.421C403.471 304.825 400.286 299.432 401.494 297.34L408.534 285.146L408.515 285.151Z" fill="black"/>
<path d="M385.471 123.508C398.672 123.508 409.374 112.841 409.374 99.6824C409.374 86.5237 398.672 75.8564 385.471 75.8564C372.27 75.8564 361.568 86.5237 361.568 99.6824C361.568 112.841 372.27 123.508 385.471 123.508Z" fill="black"/>
<path d="M420.405 73.0081C428.957 73.0081 435.889 66.0981 435.889 57.5743C435.889 49.0505 428.957 42.1406 420.405 42.1406C411.854 42.1406 404.922 49.0505 404.922 57.5743C404.922 66.0981 411.854 73.0081 420.405 73.0081Z" fill="black"/>
<path d="M399.81 33.9196C405.527 33.9196 410.162 29.3 410.162 23.6014C410.162 17.9028 405.527 13.2832 399.81 13.2832C394.094 13.2832 389.459 17.9028 389.459 23.6014C389.459 29.3 394.094 33.9196 399.81 33.9196Z" fill="black"/>
</g>
<defs>
<clipPath id="clip0_121_208">
<rect width="303" height="431" fill="white" transform="translate(245.186)"/>
</clipPath>
</defs>
</svg>
