<svg width="793" height="585" viewBox="0 0 793 585" fill="none" xmlns="http://www.w3.org/2000/svg">
<path d="M83.6684 512.223H63.08C62.8055 510.109 62.2427 508.201 61.3917 506.499C60.5407 504.797 59.4152 503.342 58.0152 502.135C56.6152 500.927 54.9544 500.007 53.0328 499.376C51.1387 498.717 49.0386 498.387 46.7327 498.387C42.6425 498.387 39.115 499.389 36.1502 501.393C33.213 503.397 30.9482 506.293 29.356 510.082C27.7913 513.87 27.009 518.454 27.009 523.835C27.009 529.435 27.805 534.129 29.3972 537.917C31.0169 541.678 33.2816 544.519 36.1914 546.441C39.1287 548.335 42.6013 549.282 46.6092 549.282C48.8602 549.282 50.9053 548.994 52.7446 548.417C54.6112 547.841 56.2446 547.004 57.6446 545.906C59.0721 544.78 60.2388 543.421 61.1447 541.829C62.078 540.21 62.7231 538.384 63.08 536.353L83.6684 536.476C83.3116 540.21 82.2273 543.888 80.4155 547.512C78.6311 551.135 76.1742 554.443 73.0448 557.435C69.9153 560.4 66.0996 562.761 61.5976 564.518C57.123 566.275 51.9896 567.153 46.1974 567.153C38.566 567.153 31.7306 565.478 25.6913 562.129C19.6795 558.753 14.9304 553.839 11.4441 547.388C7.95776 540.937 6.2146 533.086 6.2146 523.835C6.2146 514.556 7.98521 506.691 11.5264 500.24C15.0676 493.789 19.8579 488.889 25.8972 485.54C31.9365 482.191 38.7032 480.517 46.1974 480.517C51.3034 480.517 56.025 481.23 60.3623 482.658C64.6996 484.058 68.5153 486.117 71.8095 488.834C75.1036 491.525 77.7801 494.833 79.839 498.758C81.8978 502.684 83.1743 507.172 83.6684 512.223ZM113.161 567.071C109.126 567.071 105.544 566.398 102.414 565.053C99.3123 563.68 96.8554 561.622 95.0436 558.876C93.2592 556.104 92.3671 552.631 92.3671 548.459C92.3671 544.945 92.9847 541.98 94.22 539.564C95.4553 537.149 97.1573 535.186 99.326 533.676C101.495 532.166 103.993 531.027 106.82 530.258C109.648 529.462 112.667 528.927 115.879 528.653C119.475 528.323 122.371 527.98 124.567 527.623C126.764 527.239 128.356 526.703 129.344 526.017C130.36 525.303 130.868 524.301 130.868 523.011V522.805C130.868 520.692 130.14 519.058 128.685 517.905C127.23 516.752 125.267 516.176 122.797 516.176C120.134 516.176 117.993 516.752 116.373 517.905C114.754 519.058 113.724 520.65 113.285 522.682L94.7142 522.023C95.2632 518.18 96.6769 514.748 98.9554 511.729C101.261 508.682 104.418 506.293 108.426 504.564C112.461 502.807 117.307 501.929 122.962 501.929C126.997 501.929 130.717 502.409 134.12 503.37C137.524 504.303 140.489 505.676 143.015 507.488C145.54 509.272 147.489 511.468 148.862 514.076C150.262 516.684 150.962 519.662 150.962 523.011V566H132.02V557.188H131.526C130.401 559.329 128.96 561.141 127.203 562.623C125.473 564.106 123.428 565.218 121.067 565.959C118.734 566.7 116.099 567.071 113.161 567.071ZM119.379 553.894C121.548 553.894 123.497 553.455 125.226 552.576C126.983 551.698 128.383 550.49 129.426 548.953C130.469 547.388 130.991 545.576 130.991 543.517V537.506C130.415 537.808 129.715 538.082 128.891 538.329C128.095 538.576 127.216 538.809 126.256 539.029C125.295 539.249 124.307 539.441 123.291 539.606C122.275 539.77 121.301 539.921 120.367 540.059C118.473 540.36 116.854 540.827 115.509 541.459C114.191 542.09 113.175 542.913 112.461 543.929C111.775 544.917 111.432 546.098 111.432 547.47C111.432 549.557 112.173 551.149 113.656 552.247C115.165 553.345 117.073 553.894 119.379 553.894ZM163.274 566V502.752H182.833V514.282H183.492C184.645 510.109 186.525 507.007 189.133 504.976C191.741 502.917 194.774 501.887 198.233 501.887C199.166 501.887 200.127 501.956 201.115 502.093C202.104 502.203 203.023 502.382 203.874 502.629V520.129C202.913 519.799 201.651 519.539 200.086 519.347C198.549 519.154 197.176 519.058 195.968 519.058C193.58 519.058 191.425 519.594 189.503 520.664C187.609 521.707 186.113 523.176 185.015 525.07C183.945 526.937 183.409 529.133 183.409 531.658V566H163.274ZM238.319 567.194C231.676 567.194 225.966 565.835 221.189 563.118C216.44 560.372 212.775 556.557 210.195 551.67C207.642 546.757 206.365 541.06 206.365 534.582C206.365 528.076 207.642 522.38 210.195 517.494C212.775 512.58 216.44 508.764 221.189 506.046C225.966 503.301 231.676 501.929 238.319 501.929C244.962 501.929 250.658 503.301 255.407 506.046C260.184 508.764 263.848 512.58 266.401 517.494C268.982 522.38 270.272 528.076 270.272 534.582C270.272 541.06 268.982 546.757 266.401 551.67C263.848 556.557 260.184 560.372 255.407 563.118C250.658 565.835 244.962 567.194 238.319 567.194ZM238.442 552C240.858 552 242.903 551.259 244.578 549.776C246.252 548.294 247.529 546.235 248.407 543.6C249.313 540.964 249.766 537.917 249.766 534.458C249.766 530.945 249.313 527.87 248.407 525.235C247.529 522.599 246.252 520.541 244.578 519.058C242.903 517.576 240.858 516.835 238.442 516.835C235.944 516.835 233.83 517.576 232.101 519.058C230.399 520.541 229.095 522.599 228.189 525.235C227.311 527.87 226.872 530.945 226.872 534.458C226.872 537.917 227.311 540.964 228.189 543.6C229.095 546.235 230.399 548.294 232.101 549.776C233.83 551.259 235.944 552 238.442 552ZM321.393 538.7V502.752H341.488V566H322.299V554.223H321.64C320.24 558.094 317.852 561.169 314.476 563.447C311.126 565.698 307.077 566.824 302.328 566.824C298.018 566.824 294.23 565.835 290.963 563.859C287.697 561.882 285.158 559.123 283.346 555.582C281.534 552.014 280.614 547.841 280.587 543.064V502.752H300.722V539.111C300.75 542.543 301.656 545.247 303.44 547.223C305.224 549.2 307.654 550.188 310.728 550.188C312.732 550.188 314.53 549.749 316.123 548.87C317.742 547.964 319.019 546.661 319.952 544.959C320.913 543.229 321.393 541.143 321.393 538.7ZM409.522 522.064L391.034 522.558C390.842 521.241 390.32 520.074 389.469 519.058C388.618 518.015 387.506 517.205 386.134 516.629C384.789 516.025 383.224 515.723 381.44 515.723C379.106 515.723 377.116 516.19 375.469 517.123C373.849 518.056 373.053 519.319 373.081 520.911C373.053 522.147 373.547 523.217 374.563 524.123C375.606 525.029 377.459 525.756 380.122 526.305L392.31 528.611C398.624 529.819 403.318 531.823 406.393 534.623C409.495 537.423 411.059 541.129 411.087 545.741C411.059 550.078 409.769 553.853 407.216 557.065C404.691 560.276 401.232 562.774 396.84 564.559C392.448 566.316 387.424 567.194 381.769 567.194C372.737 567.194 365.614 565.341 360.398 561.635C355.21 557.902 352.245 552.906 351.504 546.647L371.392 546.153C371.832 548.459 372.971 550.216 374.81 551.423C376.649 552.631 378.996 553.235 381.851 553.235C384.432 553.235 386.532 552.755 388.151 551.794C389.771 550.833 390.595 549.557 390.622 547.964C390.595 546.537 389.963 545.398 388.728 544.547C387.493 543.668 385.557 542.982 382.922 542.488L371.886 540.388C365.545 539.235 360.824 537.108 357.722 534.006C354.62 530.876 353.082 526.896 353.11 522.064C353.082 517.837 354.208 514.227 356.486 511.235C358.765 508.215 362.004 505.909 366.204 504.317C370.404 502.725 375.359 501.929 381.069 501.929C389.634 501.929 396.387 503.727 401.328 507.323C406.269 510.892 409.001 515.805 409.522 522.064ZM450.565 567.194C443.95 567.194 438.24 565.89 433.436 563.282C428.659 560.647 424.981 556.9 422.4 552.041C419.847 547.155 418.571 541.349 418.571 534.623C418.571 528.09 419.861 522.38 422.441 517.494C425.022 512.58 428.659 508.764 433.353 506.046C438.048 503.301 443.579 501.929 449.948 501.929C454.45 501.929 458.567 502.629 462.301 504.029C466.034 505.429 469.26 507.501 471.977 510.246C474.695 512.992 476.809 516.382 478.319 520.417C479.828 524.425 480.583 529.023 480.583 534.211V539.235H425.612V527.541H461.848C461.82 525.4 461.313 523.492 460.324 521.817C459.336 520.143 457.977 518.839 456.248 517.905C454.546 516.945 452.583 516.464 450.359 516.464C448.108 516.464 446.091 516.972 444.306 517.988C442.522 518.976 441.108 520.335 440.065 522.064C439.022 523.766 438.473 525.701 438.418 527.87V539.77C438.418 542.351 438.926 544.615 439.942 546.564C440.957 548.486 442.399 549.982 444.265 551.053C446.132 552.123 448.356 552.659 450.936 552.659C452.72 552.659 454.34 552.412 455.795 551.917C457.25 551.423 458.499 550.696 459.542 549.735C460.585 548.774 461.367 547.594 461.889 546.194L480.377 546.729C479.609 550.874 477.921 554.484 475.313 557.559C472.732 560.606 469.342 562.98 465.142 564.682C460.942 566.357 456.083 567.194 450.565 567.194ZM511.003 481.67V566H490.867V481.67H511.003ZM523.819 566V481.67H544.202V549.447H579.284V566H523.819ZM607.666 567.071C603.63 567.071 600.048 566.398 596.918 565.053C593.816 563.68 591.36 561.622 589.548 558.876C587.763 556.104 586.871 552.631 586.871 548.459C586.871 544.945 587.489 541.98 588.724 539.564C589.96 537.149 591.662 535.186 593.83 533.676C595.999 532.166 598.497 531.027 601.324 530.258C604.152 529.462 607.172 528.927 610.383 528.653C613.979 528.323 616.876 527.98 619.072 527.623C621.268 527.239 622.86 526.703 623.848 526.017C624.864 525.303 625.372 524.301 625.372 523.011V522.805C625.372 520.692 624.644 519.058 623.189 517.905C621.734 516.752 619.772 516.176 617.301 516.176C614.638 516.176 612.497 516.752 610.877 517.905C609.258 519.058 608.228 520.65 607.789 522.682L589.218 522.023C589.767 518.18 591.181 514.748 593.46 511.729C595.766 508.682 598.922 506.293 602.93 504.564C606.966 502.807 611.811 501.929 617.466 501.929C621.501 501.929 625.221 502.409 628.625 503.37C632.029 504.303 634.993 505.676 637.519 507.488C640.044 509.272 641.994 511.468 643.366 514.076C644.766 516.684 645.466 519.662 645.466 523.011V566H626.525V557.188H626.031C624.905 559.329 623.464 561.141 621.707 562.623C619.978 564.106 617.932 565.218 615.572 565.959C613.238 566.7 610.603 567.071 607.666 567.071ZM613.883 553.894C616.052 553.894 618.001 553.455 619.731 552.576C621.487 551.698 622.887 550.49 623.931 548.953C624.974 547.388 625.495 545.576 625.495 543.517V537.506C624.919 537.808 624.219 538.082 623.395 538.329C622.599 538.576 621.721 538.809 620.76 539.029C619.799 539.249 618.811 539.441 617.795 539.606C616.779 539.77 615.805 539.921 614.872 540.059C612.977 540.36 611.358 540.827 610.013 541.459C608.695 542.09 607.679 542.913 606.966 543.929C606.279 544.917 605.936 546.098 605.936 547.47C605.936 549.557 606.677 551.149 608.16 552.247C609.67 553.345 611.577 553.894 613.883 553.894ZM657.778 566V481.67H677.914V513.582H678.325C679.149 511.66 680.316 509.807 681.825 508.023C683.363 506.239 685.312 504.784 687.673 503.658C690.061 502.505 692.916 501.929 696.237 501.929C700.63 501.929 704.734 503.082 708.549 505.388C712.392 507.693 715.494 511.248 717.855 516.052C720.216 520.856 721.396 526.978 721.396 534.417C721.396 541.582 720.257 547.58 717.979 552.412C715.728 557.243 712.681 560.867 708.837 563.282C705.022 565.698 700.781 566.906 696.114 566.906C692.929 566.906 690.171 566.384 687.837 565.341C685.504 564.298 683.541 562.925 681.949 561.223C680.384 559.521 679.176 557.696 678.325 555.747H677.708V566H657.778ZM677.502 534.376C677.502 537.78 677.955 540.745 678.861 543.27C679.794 545.796 681.125 547.759 682.855 549.159C684.612 550.531 686.712 551.217 689.155 551.217C691.626 551.217 693.726 550.531 695.455 549.159C697.184 547.759 698.488 545.796 699.367 543.27C700.273 540.745 700.726 537.78 700.726 534.376C700.726 530.972 700.273 528.021 699.367 525.523C698.488 523.025 697.184 521.09 695.455 519.717C693.753 518.345 691.653 517.658 689.155 517.658C686.684 517.658 684.584 518.331 682.855 519.676C681.125 521.021 679.794 522.943 678.861 525.441C677.955 527.939 677.502 530.917 677.502 534.376ZM787.166 522.064L768.678 522.558C768.486 521.241 767.964 520.074 767.113 519.058C766.262 518.015 765.15 517.205 763.778 516.629C762.433 516.025 760.868 515.723 759.084 515.723C756.75 515.723 754.76 516.19 753.113 517.123C751.493 518.056 750.697 519.319 750.725 520.911C750.697 522.147 751.191 523.217 752.207 524.123C753.25 525.029 755.103 525.756 757.766 526.305L769.954 528.611C776.268 529.819 780.962 531.823 784.037 534.623C787.139 537.423 788.704 541.129 788.731 545.741C788.704 550.078 787.413 553.853 784.86 557.065C782.335 560.276 778.876 562.774 774.484 564.559C770.092 566.316 765.068 567.194 759.413 567.194C750.382 567.194 743.258 565.341 738.042 561.635C732.854 557.902 729.889 552.906 729.148 546.647L749.036 546.153C749.476 548.459 750.615 550.216 752.454 551.423C754.293 552.631 756.64 553.235 759.495 553.235C762.076 553.235 764.176 552.755 765.795 551.794C767.415 550.833 768.239 549.557 768.266 547.964C768.239 546.537 767.607 545.398 766.372 544.547C765.137 543.668 763.201 542.982 760.566 542.488L749.531 540.388C743.189 539.235 738.468 537.108 735.366 534.006C732.264 530.876 730.726 526.896 730.754 522.064C730.726 517.837 731.852 514.227 734.13 511.235C736.409 508.215 739.648 505.909 743.848 504.317C748.048 502.725 753.003 501.929 758.713 501.929C767.278 501.929 774.031 503.727 778.972 507.323C783.913 510.892 786.645 515.805 787.166 522.064Z" fill="white"/>
<g clip-path="url(#clip0_121_207)">
<path d="M344.309 154.679C337.962 154.679 329.035 156.176 328.029 147.815C327.307 141.784 327.278 132.872 334.944 131.983C339.846 131.404 353.632 131.389 358.464 132.081C363.919 132.858 367.419 137.674 367.915 142.914C369.771 162.672 366.753 185.708 367.518 205.777L272.36 367.757C261.535 386.922 271.708 405 293.486 406.694H500.01C515.398 406.045 527.115 395.424 525.571 379.535C524.848 372.107 518.104 362.559 514.335 355.893C485.586 304.979 453.097 255.985 425.794 204.322C426.743 184.818 423.867 162.941 425.567 143.719C426.049 138.324 429.237 132.943 435.004 132.053C439.595 131.347 453.749 131.446 458.538 131.983C466.374 132.858 467.195 141.219 466.189 147.744C464.886 156.204 456.455 154.778 449.98 154.679V201.271C478.077 252.016 511.855 301.151 539.23 352.136C559.562 389.972 543.523 423.303 501.583 430.958L291.856 431.001C255.046 428.218 232.602 389.083 252.325 356.698L344.309 200.466V154.693V154.679Z" fill="white"/>
<path d="M408.329 285.151C399.009 282.591 389.702 281.425 380.325 284.377C349.768 294.003 338.191 335.167 362.416 357.421C387.982 380.923 425.766 366.713 433.798 334.184C435.729 326.362 431.234 313.574 441.673 311.561C453.055 309.359 455.379 319.898 454.947 328.553C451.512 397.951 352.049 412.754 331.039 345.144C315.329 294.569 369.527 244.108 418.441 267.636C422.185 258.659 431.28 247.014 435.449 262.859C437.732 271.516 438.403 281.264 441.091 289.927C441.331 292.316 440.154 294.979 438.027 296.083L406.398 304.421C403.285 304.825 400.101 299.432 401.308 297.34L408.349 285.146L408.329 285.151Z" fill="white"/>
<path d="M385.286 123.508C398.487 123.508 409.188 112.841 409.188 99.6824C409.188 86.5237 398.487 75.8564 385.286 75.8564C372.084 75.8564 361.383 86.5237 361.383 99.6824C361.383 112.841 372.084 123.508 385.286 123.508Z" fill="white"/>
<path d="M420.22 73.0081C428.771 73.0081 435.703 66.0981 435.703 57.5743C435.703 49.0505 428.771 42.1406 420.22 42.1406C411.669 42.1406 404.736 49.0505 404.736 57.5743C404.736 66.0981 411.669 73.0081 420.22 73.0081Z" fill="white"/>
<path d="M399.625 33.9196C405.342 33.9196 409.976 29.3 409.976 23.6014C409.976 17.9028 405.342 13.2832 399.625 13.2832C393.908 13.2832 389.273 17.9028 389.273 23.6014C389.273 29.3 393.908 33.9196 399.625 33.9196Z" fill="white"/>
</g>
<defs>
<clipPath id="clip0_121_207">
<rect width="303" height="431" fill="white" transform="translate(245)"/>
</clipPath>
</defs>
</svg>
