<svg width="477" height="659" viewBox="0 0 477 659" fill="none" xmlns="http://www.w3.org/2000/svg">
<path d="M156.696 223.161C146.724 223.161 132.701 225.519 131.121 212.347C129.986 202.847 129.941 188.807 141.983 187.405C149.685 186.493 171.342 186.471 178.932 187.561C187.502 188.785 193 196.372 193.779 204.627C196.695 235.754 191.954 272.044 193.156 303.661L43.6669 558.845C26.6614 589.038 42.643 617.518 76.8545 620.188H401.296C425.469 619.164 443.876 602.433 441.45 577.401C440.315 565.698 429.72 550.657 423.799 540.155C378.636 459.944 327.598 382.759 284.705 301.369C286.197 270.642 281.678 236.177 284.349 205.895C285.106 197.395 290.114 188.918 299.173 187.517C306.385 186.404 328.621 186.56 336.145 187.405C348.454 188.785 349.745 201.957 348.164 212.236C346.117 225.564 332.873 223.317 322.701 223.161V296.563C366.839 376.507 419.904 453.915 462.908 534.237C494.849 593.844 469.652 646.354 403.766 658.413L74.2948 658.48C16.4669 654.097 -18.7907 592.442 12.1933 541.423L156.696 295.295V223.183V223.161Z" fill="black"/>
<path d="M257.347 428.721C242.7 424.71 228.071 422.892 213.323 427.557C165.268 442.77 146.988 507.596 185.028 542.584C225.175 579.534 284.602 557.091 297.291 505.865C300.342 493.547 293.3 473.424 309.714 470.234C327.612 466.746 331.246 483.334 330.55 496.96C325.016 606.219 168.624 629.715 135.726 523.318C111.125 443.728 196.426 364.183 273.278 401.128C279.18 386.988 293.5 368.639 300.024 393.576C303.596 407.2 304.632 422.545 308.841 436.177C309.215 439.938 307.358 444.133 304.013 445.875L254.274 459.062C249.38 459.705 244.383 451.219 246.286 447.924L257.377 428.713L257.347 428.721Z" fill="black"/>
<path d="M221.068 174.056C241.806 174.056 258.618 157.25 258.618 136.52C258.618 115.79 241.806 98.9844 221.068 98.9844C200.329 98.9844 183.518 115.79 183.518 136.52C183.518 157.25 200.329 174.056 221.068 174.056Z" fill="black"/>
<path d="M275.948 94.4979C289.382 94.4979 300.272 83.612 300.272 70.1835C300.272 56.7551 289.382 45.8691 275.948 45.8691C262.515 45.8691 251.625 56.7551 251.625 70.1835C251.625 83.612 262.515 94.4979 275.948 94.4979Z" fill="black"/>
<path d="M243.594 32.917C252.576 32.917 259.856 25.6392 259.856 16.6616C259.856 7.68403 252.576 0.40625 243.594 0.40625C234.613 0.40625 227.333 7.68403 227.333 16.6616C227.333 25.6392 234.613 32.917 243.594 32.917Z" fill="black"/>
</svg>
