<svg width="477" height="680" viewBox="0 0 477 680" fill="none" xmlns="http://www.w3.org/2000/svg">
<g clip-path="url(#clip0_121_65)">
<path d="M156.511 244.161C146.539 244.161 132.516 246.519 130.935 233.347C129.8 223.847 129.756 209.807 141.798 208.405C149.499 207.493 171.157 207.471 178.747 208.561C187.316 209.785 192.814 217.372 193.593 225.627C196.509 256.754 191.768 293.044 192.97 324.661L43.4814 579.845C26.4758 610.038 42.4575 638.518 76.6689 641.188H401.11C425.283 640.164 443.691 623.433 441.265 598.401C440.129 586.698 429.534 571.657 423.614 561.155C378.451 480.944 327.412 403.759 284.52 322.369C286.011 291.642 281.493 257.177 284.164 226.895C284.92 218.395 289.929 209.918 298.988 208.517C306.2 207.404 328.436 207.56 335.959 208.405C348.268 209.785 349.559 222.957 347.979 233.236C345.931 246.564 332.687 244.317 322.515 244.161V317.563C366.654 397.507 419.718 474.915 462.722 555.237C494.663 614.844 469.466 667.354 403.581 679.413L74.1092 679.48C16.2814 675.097 -18.9762 613.442 12.0077 562.423L156.511 316.295V244.183V244.161Z" fill="#22C55E"/>
<path d="M257.161 449.721C242.514 445.71 227.885 443.892 213.138 448.557C165.082 463.77 146.803 528.596 184.843 563.584C224.989 600.534 284.416 578.091 297.105 526.865C300.156 514.547 293.114 494.424 309.529 491.234C327.427 487.746 331.06 504.334 330.364 517.96C324.831 627.219 168.439 650.715 135.541 544.318C110.94 464.728 196.241 385.183 273.092 422.128C278.994 407.988 293.315 389.639 299.839 414.576C303.411 428.2 304.446 443.545 308.656 457.177C309.029 460.938 307.173 465.133 303.828 466.875L254.089 480.062C249.194 480.705 244.198 472.219 246.1 468.924L257.192 449.713L257.161 449.721Z" fill="#22C55E"/>
<path d="M220.882 195.056C241.621 195.056 258.433 178.25 258.433 157.52C258.433 136.79 241.621 119.984 220.882 119.984C200.144 119.984 183.332 136.79 183.332 157.52C183.332 178.25 200.144 195.056 220.882 195.056Z" fill="#22C55E"/>
<path d="M275.763 115.498C289.197 115.498 300.087 104.612 300.087 91.1835C300.087 77.7551 289.197 66.8691 275.763 66.8691C262.329 66.8691 251.439 77.7551 251.439 91.1835C251.439 104.612 262.329 115.498 275.763 115.498Z" fill="#22C55E"/>
<path d="M243.409 53.917C252.39 53.917 259.671 46.6392 259.671 37.6616C259.671 28.684 252.39 21.4062 243.409 21.4062C234.428 21.4062 227.147 28.684 227.147 37.6616C227.147 46.6392 234.428 53.917 243.409 53.917Z" fill="#22C55E"/>
</g>
<defs>
<clipPath id="clip0_121_65">
<rect width="476" height="679" fill="#22C55E" transform="translate(0.5 0.480469)"/>
</clipPath>
</defs>
</svg>


